<svg width="59" height="52" viewBox="0 0 59 52" fill="none" xmlns="http://www.w3.org/2000/svg">
<path fill-rule="evenodd" clip-rule="evenodd" d="M21 7.5C21.8284 7.5 22.5 6.82843 22.5 6C22.5 5.17157 21.8284 4.5 21 4.5C20.1716 4.5 19.5 5.17157 19.5 6C19.5 6.82843 20.1716 7.5 21 7.5ZM24.5 5.25H39.5V6.75H24.5V5.25ZM39.5 11.25H24.5V12.75H39.5V11.25ZM39.5 17.25H24.5V18.75H39.5V17.25ZM22.5 12C22.5 12.8284 21.8284 13.5 21 13.5C20.1716 13.5 19.5 12.8284 19.5 12C19.5 11.1716 20.1716 10.5 21 10.5C21.8284 10.5 22.5 11.1716 22.5 12ZM21 19.5C21.8284 19.5 22.5 18.8284 22.5 18C22.5 17.1716 21.8284 16.5 21 16.5C20.1716 16.5 19.5 17.1716 19.5 18C19.5 18.8284 20.1716 19.5 21 19.5Z" fill="#E8E9EA"/>
<path d="M7.43 40.96L11.98 46H10.468L7.178 42.346L6.31 41.38V46H5.134V36.2H6.31V40.624C6.548 40.344 6.884 39.98 7.22 39.602L10.272 36.2H11.812L7.43 40.96ZM17.6804 46C17.5824 45.692 17.4844 45.244 17.4844 44.628C17.1064 45.566 16.0984 46.196 15.0764 46.196C13.6624 46.196 12.7524 45.314 12.7524 44.068C12.7524 42.71 13.8304 42.038 15.1184 41.842L17.4704 41.478V41.128C17.4704 40.218 16.8684 39.756 15.8324 39.756C14.7544 39.756 14.1804 40.302 14.1804 40.89C14.1804 40.946 14.1804 41.002 14.2084 41.086L13.2144 41.296C13.1584 41.17 13.1304 40.974 13.1304 40.82C13.1304 39.742 14.2224 38.86 15.8324 38.86C17.6104 38.86 18.5904 39.7 18.5904 41.156V44.264C18.5904 45.048 18.6464 45.468 18.8004 46H17.6804ZM15.2444 45.216C16.6444 45.216 17.4704 43.97 17.4704 42.626V42.346L15.3424 42.682C14.4044 42.85 13.8724 43.298 13.8724 44.026C13.8724 44.74 14.4324 45.216 15.2444 45.216ZM21.8771 46V40.05H19.6091V39.056H25.2931V40.05H23.0111V46H21.8771ZM30.8191 46C30.7211 45.692 30.6231 45.244 30.6231 44.628C30.2451 45.566 29.2371 46.196 28.2151 46.196C26.8011 46.196 25.8911 45.314 25.8911 44.068C25.8911 42.71 26.9691 42.038 28.2571 41.842L30.6091 41.478V41.128C30.6091 40.218 30.0071 39.756 28.9711 39.756C27.8931 39.756 27.3191 40.302 27.3191 40.89C27.3191 40.946 27.3191 41.002 27.3471 41.086L26.3531 41.296C26.2971 41.17 26.2691 40.974 26.2691 40.82C26.2691 39.742 27.3611 38.86 28.9711 38.86C30.7491 38.86 31.7291 39.7 31.7291 41.156V44.264C31.7291 45.048 31.7851 45.468 31.9391 46H30.8191ZM28.3831 45.216C29.7831 45.216 30.6091 43.97 30.6091 42.626V42.346L28.4811 42.682C27.5431 42.85 27.0111 43.298 27.0111 44.026C27.0111 44.74 27.5711 45.216 28.3831 45.216ZM33.632 46.098C33.366 46.098 33.114 46 33.114 46V44.992C33.114 44.992 33.31 45.09 33.59 45.09C34.052 45.09 34.29 44.838 34.36 43.368L34.612 39.056H39.47V46H38.336V40.05H35.592L35.41 43.438C35.298 45.412 34.864 46.098 33.632 46.098ZM48.2612 42.528C48.2612 44.894 46.5252 46.196 44.6212 46.196C42.7312 46.196 40.9952 44.894 40.9952 42.528C40.9952 40.162 42.7312 38.86 44.6212 38.86C46.5252 38.86 48.2612 40.162 48.2612 42.528ZM44.6212 45.174C46.0212 45.174 47.1272 44.096 47.1272 42.528C47.1272 40.96 46.0212 39.882 44.6212 39.882C43.2352 39.882 42.1292 40.96 42.1292 42.528C42.1292 44.096 43.2352 45.174 44.6212 45.174ZM49.7827 46V39.056H54.0667V40.05H50.9167V46H49.7827Z" fill="#E8E9EA"/>
</svg>
