<svg width="59" height="52" viewBox="0 0 59 52" fill="none" xmlns="http://www.w3.org/2000/svg">
<path fill-rule="evenodd" clip-rule="evenodd" d="M35.9927 10.983L35.016 11.3466V12.3887V18.0005C35.016 18.829 34.3445 19.5005 33.516 19.5005H32.5V19.5V14C32.5 12.8954 31.6046 12 30.5 12H28.5C27.3954 12 26.5 12.8954 26.5 14V19.5V19.5005H25.4927C24.6643 19.5005 23.9927 18.829 23.9927 18.0005V12.3887V11.3456L23.0148 10.9825L21.5458 10.4372L29.5021 4.61948L37.4548 10.4387L35.9927 10.983ZM38.8481 11.5205L36.516 12.3887V18.0005C36.516 19.6574 35.1729 21.0005 33.516 21.0005H25.4927C23.8359 21.0005 22.4927 19.6574 22.4927 18.0005V12.3887L20.1522 11.5198C19.4051 11.2425 19.2667 10.2455 19.91 9.77514L28.912 3.19278C29.2636 2.93567 29.7412 2.93575 30.0927 3.19298L39.0897 9.77631C39.7324 10.2465 39.5944 11.2427 38.8481 11.5205ZM28.5 13.5H30.5C30.7761 13.5 31 13.7239 31 14V19.5H28V14C28 13.7239 28.2239 13.5 28.5 13.5Z" fill="#E8E9EA"/>
<path d="M5.634 46V36.2H11.906V37.236H6.81V46H5.634ZM11.1085 46.098C10.8425 46.098 10.5905 46 10.5905 46V44.992C10.5905 44.992 10.7865 45.09 11.0665 45.09C11.5285 45.09 11.7665 44.838 11.8365 43.368L12.0885 39.056H16.9465V46H15.8125V40.05H13.0685L12.8865 43.438C12.7745 45.412 12.3405 46.098 11.1085 46.098ZM23.3894 46C23.2914 45.692 23.1934 45.244 23.1934 44.628C22.8154 45.566 21.8074 46.196 20.7854 46.196C19.3714 46.196 18.4614 45.314 18.4614 44.068C18.4614 42.71 19.5394 42.038 20.8274 41.842L23.1794 41.478V41.128C23.1794 40.218 22.5774 39.756 21.5414 39.756C20.4634 39.756 19.8894 40.302 19.8894 40.89C19.8894 40.946 19.8894 41.002 19.9174 41.086L18.9234 41.296C18.8674 41.17 18.8394 40.974 18.8394 40.82C18.8394 39.742 19.9314 38.86 21.5414 38.86C23.3194 38.86 24.2994 39.7 24.2994 41.156V44.264C24.2994 45.048 24.3554 45.468 24.5094 46H23.3894ZM20.9534 45.216C22.3534 45.216 23.1794 43.97 23.1794 42.626V42.346L21.0514 42.682C20.1134 42.85 19.5814 43.298 19.5814 44.026C19.5814 44.74 20.1414 45.216 20.9534 45.216ZM25.9605 46V39.056H29.0125C30.4265 39.056 31.2105 39.854 31.2105 40.792C31.2105 41.548 30.7765 42.066 30.1745 42.346C30.8885 42.556 31.4765 43.116 31.4765 44.026C31.4765 45.16 30.5105 46 29.0545 46H25.9605ZM27.0805 41.94H28.9845C29.6705 41.94 30.1325 41.618 30.1325 40.96C30.1325 40.288 29.6705 39.966 29.0265 39.966H27.0805V41.94ZM27.0805 45.09H29.0965C29.8805 45.09 30.3565 44.656 30.3565 43.956C30.3565 43.256 29.8805 42.836 29.0965 42.836H27.0805V45.09ZM33.0015 46V39.056H34.1355V41.87H37.7055V39.056H38.8395V46H37.7055V42.85H34.1355V46H33.0015ZM45.2781 46C45.1801 45.692 45.0821 45.244 45.0821 44.628C44.7041 45.566 43.6961 46.196 42.6741 46.196C41.2601 46.196 40.3501 45.314 40.3501 44.068C40.3501 42.71 41.4281 42.038 42.7161 41.842L45.0681 41.478V41.128C45.0681 40.218 44.4661 39.756 43.4301 39.756C42.3521 39.756 41.7781 40.302 41.7781 40.89C41.7781 40.946 41.7781 41.002 41.8061 41.086L40.8121 41.296C40.7561 41.17 40.7281 40.974 40.7281 40.82C40.7281 39.742 41.8201 38.86 43.4301 38.86C45.2081 38.86 46.1881 39.7 46.1881 41.156V44.264C46.1881 45.048 46.2441 45.468 46.3981 46H45.2781ZM42.8421 45.216C44.2421 45.216 45.0681 43.97 45.0681 42.626V42.346L42.9401 42.682C42.0021 42.85 41.4701 43.298 41.4701 44.026C41.4701 44.74 42.0301 45.216 42.8421 45.216ZM49.9215 39.056H52.8195V46H51.7135V43.312H50.3695L48.6755 46H47.4575L49.2355 43.172C48.2695 42.948 47.6255 42.29 47.6255 41.184C47.6255 39.924 48.4935 39.056 49.9215 39.056ZM51.7135 42.374V39.994H49.9075C49.2215 39.994 48.6895 40.4 48.6895 41.184C48.6895 41.968 49.2215 42.374 49.9635 42.374H51.7135Z" fill="#E8E9EA"/>
</svg>
