<svg width="59" height="52" viewBox="0 0 59 52" fill="none" xmlns="http://www.w3.org/2000/svg">
<path fill-rule="evenodd" clip-rule="evenodd" d="M35.5 13.5C34.6716 13.5 34 12.8284 34 12C34 11.1716 34.6716 10.5 35.5 10.5C36.3284 10.5 37 11.1716 37 12C37 12.8284 36.3284 13.5 35.5 13.5ZM29.5 13.5C28.6716 13.5 28 12.8284 28 12C28 11.1716 28.6716 10.5 29.5 10.5C30.3284 10.5 31 11.1716 31 12C31 12.8284 30.3284 13.5 29.5 13.5ZM22 12C22 12.8284 22.6716 13.5 23.5 13.5C24.3284 13.5 25 12.8284 25 12C25 11.1716 24.3284 10.5 23.5 10.5C22.6716 10.5 22 11.1716 22 12Z" fill="#E8E9EA"/>
<path d="M17.134 36.2H23.252V37.236H18.31V40.414H22.86V41.45H18.31V44.964H23.294V46H17.134V36.2ZM33.647 47.624V46H24.855V39.056H25.989V45.006H28.705V39.056H29.825V45.006H32.541V39.056H33.675V45.006H34.669V47.624H33.647ZM37.0938 37.768V36.48H38.3958V37.768H37.0938ZM39.3198 37.768V36.48H40.6078V37.768H39.3198ZM36.4918 42.71C36.5618 44.124 37.4718 45.23 38.8718 45.23C40.0618 45.23 40.5798 44.656 41.0558 43.998L41.9098 44.474C41.3078 45.482 40.3838 46.196 38.8298 46.196C36.9258 46.196 35.3858 44.684 35.3858 42.528C35.3858 40.372 36.9398 38.86 38.8858 38.86C40.9298 38.86 42.2178 40.302 42.2178 42.332V42.71H36.4918ZM38.8718 39.77C37.6678 39.77 36.7158 40.652 36.4918 41.8H41.0838C41.0138 40.47 40.0058 39.77 38.8718 39.77Z" fill="#E8E9EA"/>
</svg>
